<svg width="20" height="21" viewBox="0 0 20 21" fill="none" xmlns="http://www.w3.org/2000/svg">
<path fill-rule="evenodd" clip-rule="evenodd" d="M14.9454 8.36L14.9461 8.35856C15.0562 8.13205 15.0522 7.85527 14.9071 7.63311C14.8283 7.50766 14.7147 7.41031 14.5824 7.35068C16.2334 6.19242 17.5201 4.49132 17.5201 2.66315C17.5201 2.25126 17.1827 1.91663 16.7712 1.91663C12.4463 1.91663 8.86932 3.31035 6.37306 5.79922C3.87674 8.28816 2.47949 11.854 2.47949 16.1635V17.8313C2.47949 18.2432 2.81687 18.5778 3.22839 18.5778C3.63991 18.5778 3.97728 18.2432 3.97728 17.8313V16.1635C3.97728 15.7055 3.99395 15.2526 4.03075 14.8158C6.66202 14.7699 12.0196 14.2617 14.9454 8.36ZM4.18796 13.5244C4.11759 13.5262 4.0487 13.5275 3.98137 13.5286C3.99236 13.4604 4.00379 13.3924 4.01564 13.3247C4.00379 13.3924 3.99236 13.4604 3.98137 13.5286C4.0487 13.5275 4.11759 13.5262 4.18796 13.5244ZM13.2383 8.77721C13.2796 8.7104 13.3205 8.64265 13.361 8.57395C13.3205 8.64265 13.2796 8.7104 13.2383 8.77721ZM8.08536 6.29897C6.08905 7.99747 4.74446 10.3897 4.22283 13.3202C6.56551 13.2585 10.4665 12.775 12.9986 8.77721H11.3093C10.9332 8.77721 10.6121 8.49334 10.5673 8.11429C10.5224 7.73457 10.7696 7.38251 11.1451 7.29989C12.1931 7.06322 13.3074 6.49128 14.2083 5.74144C15.0267 5.06029 15.6497 4.24888 15.9005 3.43168C12.7362 3.58779 10.0797 4.60216 8.08536 6.29897ZM16.1656 3.21729C16.0954 3.21964 16.0254 3.22241 15.9557 3.22558C16.0254 3.22241 16.0954 3.21964 16.1656 3.21729ZM16.7713 17.0902H6.58416C6.17264 17.0902 5.83526 17.4249 5.83526 17.8368C5.83526 18.2487 6.17264 18.5833 6.58416 18.5833H16.7713C17.1828 18.5833 17.5202 18.2487 17.5202 17.8368C17.5202 17.4249 17.1828 17.0902 16.7713 17.0902Z" fill="#626262"/>
</svg>
